<svg width="30" height="31" viewBox="0 0 30 31" fill="none" xmlns="http://www.w3.org/2000/svg">
<path d="M14.6667 0.833252C12.7406 0.833252 10.8334 1.22204 9.05398 1.9774C7.27453 2.73277 5.65769 3.83993 4.29577 5.23567C1.54523 8.05449 0 11.8776 0 15.864C0 22.5077 4.20933 28.1442 10.032 30.1433C10.7653 30.2635 11 29.7976 11 29.3918V26.8516C6.93733 27.7534 6.072 24.8374 6.072 24.8374C5.39733 23.0939 4.444 22.6279 4.444 22.6279C3.10933 21.696 4.54667 21.7261 4.54667 21.7261C6.01333 21.8313 6.79067 23.2742 6.79067 23.2742C8.06667 25.5589 10.2227 24.8825 11.0587 24.5218C11.1907 23.5448 11.572 22.8834 11.9827 22.5077C8.72667 22.1319 5.30933 20.8392 5.30933 15.1125C5.30933 13.4441 5.86667 12.1063 6.82 11.0392C6.67333 10.6634 6.16 9.10019 6.96667 7.07103C6.96667 7.07103 8.19867 6.6652 11 8.60417C12.1587 8.2735 13.42 8.10816 14.6667 8.10816C15.9133 8.10816 17.1747 8.2735 18.3333 8.60417C21.1347 6.6652 22.3667 7.07103 22.3667 7.07103C23.1733 9.10019 22.66 10.6634 22.5133 11.0392C23.4667 12.1063 24.024 13.4441 24.024 15.1125C24.024 20.8543 20.592 22.1169 17.3213 22.4926C17.8493 22.9586 18.3333 23.8755 18.3333 25.2733V29.3918C18.3333 29.7976 18.568 30.2786 19.316 30.1433C25.1387 28.1292 29.3333 22.5077 29.3333 15.864C29.3333 13.8902 28.954 11.9356 28.2169 10.112C27.4798 8.28839 26.3995 6.63141 25.0376 5.23567C23.6756 3.83993 22.0588 2.73277 20.2794 1.9774C18.4999 1.22204 16.5927 0.833252 14.6667 0.833252Z" fill="#DFAF2B"/>
</svg>
