<svg width="30" height="31" viewBox="0 0 30 31" fill="none" xmlns="http://www.w3.org/2000/svg">
<path d="M8.50667 0.833252H20.8267C25.52 0.833252 29.3333 4.64659 29.3333 9.33992V21.6599C29.3333 23.916 28.4371 26.0797 26.8418 27.675C25.2465 29.2704 23.0828 30.1666 20.8267 30.1666H8.50667C3.81333 30.1666 0 26.3533 0 21.6599V9.33992C0 7.08381 0.896236 4.92011 2.49155 3.3248C4.08685 1.72949 6.25056 0.833252 8.50667 0.833252ZM8.21333 3.76659C6.81299 3.76659 5.47 4.32287 4.47981 5.31306C3.48962 6.30325 2.93333 7.64624 2.93333 9.04659V21.9533C2.93333 24.8719 5.29467 27.2333 8.21333 27.2333H21.12C22.5203 27.2333 23.8633 26.677 24.8535 25.6868C25.8437 24.6966 26.4 23.3536 26.4 21.9533V9.04659C26.4 6.12792 24.0387 3.76659 21.12 3.76659H8.21333ZM22.3667 5.96659C22.8529 5.96659 23.3192 6.15974 23.663 6.50356C24.0068 6.84737 24.2 7.31369 24.2 7.79992C24.2 8.28615 24.0068 8.75246 23.663 9.09628C23.3192 9.4401 22.8529 9.63325 22.3667 9.63325C21.8804 9.63325 21.4141 9.4401 21.0703 9.09628C20.7265 8.75246 20.5333 8.28615 20.5333 7.79992C20.5333 7.31369 20.7265 6.84737 21.0703 6.50356C21.4141 6.15974 21.8804 5.96659 22.3667 5.96659ZM14.6667 8.16659C16.6116 8.16659 18.4769 8.9392 19.8521 10.3145C21.2274 11.6897 22 13.555 22 15.4999C22 17.4448 21.2274 19.3101 19.8521 20.6854C18.4769 22.0606 16.6116 22.8333 14.6667 22.8333C12.7217 22.8333 10.8565 22.0606 9.48122 20.6854C8.10595 19.3101 7.33333 17.4448 7.33333 15.4999C7.33333 13.555 8.10595 11.6897 9.48122 10.3145C10.8565 8.9392 12.7217 8.16659 14.6667 8.16659ZM14.6667 11.0999C13.4997 11.0999 12.3806 11.5635 11.5554 12.3886C10.7302 13.2138 10.2667 14.333 10.2667 15.4999C10.2667 16.6669 10.7302 17.786 11.5554 18.6112C12.3806 19.4363 13.4997 19.8999 14.6667 19.8999C15.8336 19.8999 16.9528 19.4363 17.7779 18.6112C18.6031 17.786 19.0667 16.6669 19.0667 15.4999C19.0667 14.333 18.6031 13.2138 17.7779 12.3886C16.9528 11.5635 15.8336 11.0999 14.6667 11.0999Z" fill="#DFAF2B"/>
</svg>
