<svg width="30" height="31" viewBox="0 0 30 31" fill="none" xmlns="http://www.w3.org/2000/svg">
<path d="M26.0741 0.833252C26.9385 0.833252 27.7675 1.17664 28.3787 1.78787C28.9899 2.3991 29.3333 3.2281 29.3333 4.09251V26.9073C29.3333 27.7717 28.9899 28.6007 28.3787 29.212C27.7675 29.8232 26.9385 30.1666 26.0741 30.1666H3.25926C2.39485 30.1666 1.56584 29.8232 0.954615 29.212C0.343385 28.6007 0 27.7717 0 26.9073V4.09251C0 3.2281 0.343385 2.3991 0.954615 1.78787C1.56584 1.17664 2.39485 0.833252 3.25926 0.833252H26.0741ZM25.2593 26.0925V17.4555C25.2593 16.0465 24.6995 14.6952 23.7032 13.6989C22.7069 12.7026 21.3557 12.1429 19.9467 12.1429C18.5615 12.1429 16.9481 12.9903 16.1659 14.2614V12.4525H11.6193V26.0925H16.1659V18.0584C16.1659 16.8036 17.1763 15.777 18.4311 15.777C19.0362 15.777 19.6165 16.0173 20.0444 16.4452C20.4722 16.873 20.7126 17.4534 20.7126 18.0584V26.0925H25.2593ZM6.32296 9.89399C7.04907 9.89399 7.74543 9.60555 8.25886 9.09212C8.7723 8.57868 9.06074 7.88232 9.06074 7.15622C9.06074 5.64066 7.83852 4.40214 6.32296 4.40214C5.59254 4.40214 4.89203 4.6923 4.37554 5.20879C3.85905 5.72528 3.56889 6.42579 3.56889 7.15622C3.56889 8.67177 4.80741 9.89399 6.32296 9.89399ZM8.58815 26.0925V12.4525H4.07407V26.0925H8.58815Z" fill="#DFAF2B"/>
</svg>
